<mxfile host="app.diagrams.net" agent="Mozilla/5.0 (Windows NT 10.0; Win64; x64) AppleWebKit/537.36 (KHTML, like Gecko) Chrome/130.0.0.0 YaBrowser/24.12.0.0 Safari/537.36" version="25.0.3">
  <diagram name="Страница — 1" id="3bWsPvxYatZIyZbkbG-D">
    <mxGraphModel dx="1035" dy="473" grid="1" gridSize="10" guides="1" tooltips="1" connect="1" arrows="1" fold="1" page="1" pageScale="1" pageWidth="827" pageHeight="1169" math="0" shadow="0">
      <root>
        <mxCell id="0" />
        <mxCell id="1" parent="0" />
        <mxCell id="FEGgAFDrObwe5syR99fI-38" style="edgeStyle=orthogonalEdgeStyle;rounded=0;orthogonalLoop=1;jettySize=auto;html=1;exitX=1;exitY=0.3333333333333333;exitDx=0;exitDy=0;exitPerimeter=0;" edge="1" parent="1" source="FEGgAFDrObwe5syR99fI-28" target="FEGgAFDrObwe5syR99fI-30">
          <mxGeometry relative="1" as="geometry" />
        </mxCell>
        <mxCell id="FEGgAFDrObwe5syR99fI-42" style="edgeStyle=orthogonalEdgeStyle;rounded=0;orthogonalLoop=1;jettySize=auto;html=1;exitX=1;exitY=0.3333333333333333;exitDx=0;exitDy=0;exitPerimeter=0;entryX=0.5;entryY=0;entryDx=0;entryDy=0;" edge="1" parent="1" source="FEGgAFDrObwe5syR99fI-28" target="FEGgAFDrObwe5syR99fI-33">
          <mxGeometry relative="1" as="geometry">
            <Array as="points">
              <mxPoint x="285" y="180" />
            </Array>
          </mxGeometry>
        </mxCell>
        <mxCell id="FEGgAFDrObwe5syR99fI-28" value="Actor" style="shape=umlActor;verticalLabelPosition=bottom;verticalAlign=top;html=1;outlineConnect=0;" vertex="1" parent="1">
          <mxGeometry x="140" y="160" width="30" height="60" as="geometry" />
        </mxCell>
        <mxCell id="FEGgAFDrObwe5syR99fI-30" value="сайт магазина" style="ellipse;whiteSpace=wrap;html=1;" vertex="1" parent="1">
          <mxGeometry x="210" y="110" width="90" height="50" as="geometry" />
        </mxCell>
        <mxCell id="FEGgAFDrObwe5syR99fI-31" value="Покупка" style="ellipse;whiteSpace=wrap;html=1;" vertex="1" parent="1">
          <mxGeometry x="360" y="280" width="90" height="50" as="geometry" />
        </mxCell>
        <mxCell id="FEGgAFDrObwe5syR99fI-32" value="Просмотр" style="ellipse;whiteSpace=wrap;html=1;" vertex="1" parent="1">
          <mxGeometry x="350" y="180" width="90" height="50" as="geometry" />
        </mxCell>
        <mxCell id="FEGgAFDrObwe5syR99fI-33" value="Товары магазина" style="ellipse;whiteSpace=wrap;html=1;" vertex="1" parent="1">
          <mxGeometry x="240" y="230" width="90" height="50" as="geometry" />
        </mxCell>
        <mxCell id="FEGgAFDrObwe5syR99fI-34" value="Каталоги" style="ellipse;whiteSpace=wrap;html=1;" vertex="1" parent="1">
          <mxGeometry x="340" y="90" width="90" height="50" as="geometry" />
        </mxCell>
        <mxCell id="FEGgAFDrObwe5syR99fI-35" value="Корзина" style="ellipse;whiteSpace=wrap;html=1;" vertex="1" parent="1">
          <mxGeometry x="240" y="40" width="90" height="50" as="geometry" />
        </mxCell>
        <mxCell id="FEGgAFDrObwe5syR99fI-36" value="Главная страница" style="ellipse;whiteSpace=wrap;html=1;" vertex="1" parent="1">
          <mxGeometry x="130" y="50" width="90" height="50" as="geometry" />
        </mxCell>
        <mxCell id="FEGgAFDrObwe5syR99fI-39" value="" style="endArrow=none;dashed=1;html=1;dashPattern=1 3;strokeWidth=2;rounded=0;exitX=0.707;exitY=0.97;exitDx=0;exitDy=0;exitPerimeter=0;entryX=0.278;entryY=0.063;entryDx=0;entryDy=0;entryPerimeter=0;" edge="1" parent="1" source="FEGgAFDrObwe5syR99fI-36" target="FEGgAFDrObwe5syR99fI-30">
          <mxGeometry width="50" height="50" relative="1" as="geometry">
            <mxPoint x="400" y="250" as="sourcePoint" />
            <mxPoint x="450" y="200" as="targetPoint" />
            <Array as="points">
              <mxPoint x="200" y="100" />
            </Array>
          </mxGeometry>
        </mxCell>
        <mxCell id="FEGgAFDrObwe5syR99fI-40" value="" style="endArrow=none;dashed=1;html=1;dashPattern=1 3;strokeWidth=2;rounded=0;exitX=0.5;exitY=1;exitDx=0;exitDy=0;" edge="1" parent="1" source="FEGgAFDrObwe5syR99fI-35" target="FEGgAFDrObwe5syR99fI-30">
          <mxGeometry width="50" height="50" relative="1" as="geometry">
            <mxPoint x="400" y="250" as="sourcePoint" />
            <mxPoint x="450" y="200" as="targetPoint" />
          </mxGeometry>
        </mxCell>
        <mxCell id="FEGgAFDrObwe5syR99fI-41" value="" style="endArrow=none;dashed=1;html=1;dashPattern=1 3;strokeWidth=2;rounded=0;exitX=1;exitY=0.5;exitDx=0;exitDy=0;" edge="1" parent="1" source="FEGgAFDrObwe5syR99fI-30" target="FEGgAFDrObwe5syR99fI-34">
          <mxGeometry width="50" height="50" relative="1" as="geometry">
            <mxPoint x="400" y="250" as="sourcePoint" />
            <mxPoint x="450" y="200" as="targetPoint" />
          </mxGeometry>
        </mxCell>
        <mxCell id="FEGgAFDrObwe5syR99fI-43" value="" style="endArrow=none;dashed=1;html=1;dashPattern=1 3;strokeWidth=2;rounded=0;exitX=1;exitY=0;exitDx=0;exitDy=0;entryX=0;entryY=1;entryDx=0;entryDy=0;" edge="1" parent="1" source="FEGgAFDrObwe5syR99fI-33" target="FEGgAFDrObwe5syR99fI-32">
          <mxGeometry width="50" height="50" relative="1" as="geometry">
            <mxPoint x="400" y="250" as="sourcePoint" />
            <mxPoint x="370" y="220" as="targetPoint" />
          </mxGeometry>
        </mxCell>
        <mxCell id="FEGgAFDrObwe5syR99fI-44" value="" style="endArrow=none;dashed=1;html=1;dashPattern=1 3;strokeWidth=2;rounded=0;exitX=0.989;exitY=0.69;exitDx=0;exitDy=0;exitPerimeter=0;entryX=0.396;entryY=-0.03;entryDx=0;entryDy=0;entryPerimeter=0;" edge="1" parent="1" source="FEGgAFDrObwe5syR99fI-33" target="FEGgAFDrObwe5syR99fI-31">
          <mxGeometry width="50" height="50" relative="1" as="geometry">
            <mxPoint x="400" y="250" as="sourcePoint" />
            <mxPoint x="450" y="200" as="targetPoint" />
          </mxGeometry>
        </mxCell>
      </root>
    </mxGraphModel>
  </diagram>
</mxfile>
